<?xml version="1.0" ?><svg height="24px" version="1.1" viewBox="0 0 24 24" width="24px" xmlns="http://www.w3.org/2000/svg" xmlns:sketch="http://www.bohemiancoding.com/sketch/ns" xmlns:xlink="http://www.w3.org/1999/xlink"><title/><desc/><defs/><g fill="none" fill-rule="evenodd" id="miu" stroke="none" stroke-width="1"><g id="Artboard-1" transform="translate(-791.000000, -659.000000)"><g id="slice" transform="translate(215.000000, 119.000000)"/><path d="M803,682 C809.075133,682 814,677.075133 814,671 C814,664.924867 809.075133,660 803,660 C796.924867,660 792,664.924867 792,671 C792,677.075133 796.924867,682 803,682 Z M803,681 C808.522848,681 813,676.522848 813,671 C813,665.477152 808.522848,661 803,661 C797.477152,661 793,665.477152 793,671 C793,676.522848 797.477152,681 803,681 Z M799.00853,665 L806.99147,665 C808.10075,665 809,665.90195 809,667.00853 L809,674.99147 C809,676.10075 808.09805,677 806.99147,677 L799.00853,677 C797.89925,677 797,676.09805 797,674.99147 L797,667.00853 C797,665.89925 797.90195,665 799.00853,665 Z M806.355061,670 L808,670 L808,674.99147 C808,675.547326 807.546905,676 806.99147,676 L799.00853,676 C798.452674,676 798,675.546905 798,674.99147 L798,670 L799.644939,670 C799.550639,670.316855 799.5,670.652514 799.5,671 C799.5,672.932997 801.067003,674.5 803,674.5 C804.932997,674.5 806.5,672.932997 806.5,671 C806.5,670.652514 806.449361,670.316855 806.355061,670 L806.355061,670 Z M803,673.5 C804.380712,673.5 805.5,672.380712 805.5,671 C805.5,669.619288 804.380712,668.5 803,668.5 C801.619288,668.5 800.5,669.619288 800.5,671 C800.5,672.380712 801.619288,673.5 803,673.5 Z M805,666.495389 C805,666.221793 805.215753,666 805.495389,666 L807.504611,666 C807.778207,666 808,666.215753 808,666.495389 L808,668.504611 C808,668.778207 807.784247,669 807.504611,669 L805.495389,669 C805.221793,669 805,668.784247 805,668.504611 L805,666.495389 Z" fill="#000000" id="circle-social-instagram-outline-stroke"/></g></g></svg>